<svg width="52" height="52" viewBox="0 0 52 52" fill="none" xmlns="http://www.w3.org/2000/svg">
<circle cx="26" cy="26" r="26" fill="#D05783"/>
<path d="M19.9167 41.1666C19.5 40.75 19.2917 40.2566 19.2917 39.6866C19.2917 39.1177 19.5 38.625 19.9167 38.2083L32.125 26L19.875 13.75C19.4861 13.3611 19.2917 12.875 19.2917 12.2916C19.2917 11.7083 19.5 11.2083 19.9167 10.7916C20.3333 10.375 20.8267 10.1666 21.3967 10.1666C21.9656 10.1666 22.4583 10.375 22.875 10.7916L36.875 24.8333C37.0417 25 37.16 25.1805 37.23 25.375C37.2989 25.5694 37.3333 25.7777 37.3333 26C37.3333 26.2222 37.2989 26.4305 37.23 26.625C37.16 26.8194 37.0417 27 36.875 27.1666L22.8333 41.2083C22.4444 41.5972 21.9656 41.7916 21.3967 41.7916C20.8267 41.7916 20.3333 41.5833 19.9167 41.1666Z" fill="#F8F8F8"/>
</svg>
